# xmcd
#
# Track frame offsets:
#	150
#	13636
#	20300
#	25240
#	35242
#	40459
#	58925
#	66977
#	71442
#	82776
#	89739
#	97498
#	101840
#	113564
#	122268
#	129899
#	138034
#	145591
#	153429
#	161440
#	167592
#	175159
#	182108
#	189256
#	200824
#	214266
#	220475
#
# Disc length: 3053 seconds
#
# Revision: 0
# Processed by: cddbd v1.5.2PL0 Copyright (c) Steve Scherf et al.
# Submitted via: EZCDAudioConverter 1.0.6.1
#
DISCID=810beb1b
DTITLE=Doug Kershaw - Anthology Rare Masters 1958 to 1969
DYEAR=2016
DGENRE=country
TTITLE0=Doug Kershaw - Love's enemy
TTITLE1=Doug Kershaw - I'm going to get drunk
TTITLE2=Doug Kershaw - If you're not going to love me that's alright
TTITLE3=Doug and Rusty Kershaw - This is our chance
TTITLE4=Doug Kershaw - Love bird
TTITLE5=Doug Kershaw - There's a wall being built
TTITLE6=Doug Kershaw - Mine is a lonely heart
TTITLE7=Doug Kershaw - That's what hurts the most 
TTITLE8=Doug and Rusty Kershaw - Misery's all gone
TTITLE9=Doug and Rusty Kershaw - I wish I had died as a baby
TTITLE10=Doug and Rusty Kershaw - A ring for my darlin'
TTITLE11=Doug Kershaw - Our love affair came tumbling down
TTITLE12=Doug Kershaw - Son of a gun
TTITLE13=Doug and Rusty Kershaw - My mind's in a fog
TTITLE14=Doug and Rusty Kershaw - Just hurting me
TTITLE15=Doug and Rusty Kershaw - My memory of you
TTITLE16=Doug Kershaw - That's alright with me
TTITLE17=Doug Kershaw - Mannequin woman
TTITLE18=Doug and Rusty Kershaw - This is the strangest love I've ever seen
TTITLE19=Doug and Rusty Kershaw - That far away look in your eye
TTITLE20=Doug Kershaw - Pay no attention
TTITLE21=Doug Kershaw - This is the house that I live in
TTITLE22=Doug and Rusty Kershaw - That's too bad about the summer night
TTITLE23=Doug Kershaw - There's no better way
TTITLE24=Doug Kershaw - Louisiana sun
TTITLE25=Doug and Rusty Kershaw - Little Bo Peep
TTITLE26=Doug Kershaw - Robie come take me home
EXTD=
EXTT0=
EXTT1=
EXTT2=
EXTT3=
EXTT4=
EXTT5=
EXTT6=
EXTT7=
EXTT8=
EXTT9=
EXTT10=
EXTT11=
EXTT12=
EXTT13=
EXTT14=
EXTT15=
EXTT16=
EXTT17=
EXTT18=
EXTT19=
EXTT20=
EXTT21=
EXTT22=
EXTT23=
EXTT24=
EXTT25=
EXTT26=
PLAYORDER=
